ModelForces
version=1
nRows=4
nColumns=199
inDegrees=no

This file contains the forces exerted on a model during a simulation.

A force is a generalized force, meaning that it can be either a force (N) or a torque (Nm).

Units are S.I. units (second, meters, Newtons, ...)
Angles are in degrees.

endheader
time	glut_med1_r	glut_med2_r	glut_med3_r	glut_min1_r	glut_min2_r	glut_min3_r	semimem_r	semiten_r	bifemlh_r	bifemsh_r	sar_r	add_long_r	add_brev_r	add_mag1_r	add_mag2_r	add_mag3_r	tfl_r	pect_r	grac_r	glut_max1_r	glut_max2_r	glut_max3_r	iliacus_r	psoas_r	quad_fem_r	gem_r	peri_r	rect_fem_r	vas_med_r	vas_int_r	vas_lat_r	med_gas_r	lat_gas_r	soleus_r	tib_post_r	flex_dig_r	flex_hal_r	tib_ant_r	per_brev_r	per_long_r	per_tert_r	ext_dig_r	ext_hal_r	glut_med1_l	glut_med2_l	glut_med3_l	glut_min1_l	glut_min2_l	glut_min3_l	semimem_l	semiten_l	bifemlh_l	bifemsh_l	sar_l	add_long_l	add_brev_l	add_mag1_l	add_mag2_l	add_mag3_l	tfl_l	pect_l	grac_l	glut_max1_l	glut_max2_l	glut_max3_l	iliacus_l	psoas_l	quad_fem_l	gem_l	peri_l	rect_fem_l	vas_med_l	vas_int_l	vas_lat_l	med_gas_l	lat_gas_l	soleus_l	tib_post_l	flex_dig_l	flex_hal_l	tib_ant_l	per_brev_l	per_long_l	per_tert_l	ext_dig_l	ext_hal_l	ercspn_r	ercspn_l	intobl_r	intobl_l	extobl_r	extobl_l	femur_lat_meniscii_l.femur_lat_l.force.X	femur_lat_meniscii_l.femur_lat_l.force.Y	femur_lat_meniscii_l.femur_lat_l.force.Z	femur_lat_meniscii_l.femur_lat_l.torque.X	femur_lat_meniscii_l.femur_lat_l.torque.Y	femur_lat_meniscii_l.femur_lat_l.torque.Z	femur_lat_meniscii_l.meniscus_lat_l.force.X	femur_lat_meniscii_l.meniscus_lat_l.force.Y	femur_lat_meniscii_l.meniscus_lat_l.force.Z	femur_lat_meniscii_l.meniscus_lat_l.torque.X	femur_lat_meniscii_l.meniscus_lat_l.torque.Y	femur_lat_meniscii_l.meniscus_lat_l.torque.Z	femur_med_meniscii_l.femur_med_l.force.X	femur_med_meniscii_l.femur_med_l.force.Y	femur_med_meniscii_l.femur_med_l.force.Z	femur_med_meniscii_l.femur_med_l.torque.X	femur_med_meniscii_l.femur_med_l.torque.Y	femur_med_meniscii_l.femur_med_l.torque.Z	femur_med_meniscii_l.meniscus_med_l.force.X	femur_med_meniscii_l.meniscus_med_l.force.Y	femur_med_meniscii_l.meniscus_med_l.force.Z	femur_med_meniscii_l.meniscus_med_l.torque.X	femur_med_meniscii_l.meniscus_med_l.torque.Y	femur_med_meniscii_l.meniscus_med_l.torque.Z	femur_lat_meniscii_r.femur_lat_r.force.X	femur_lat_meniscii_r.femur_lat_r.force.Y	femur_lat_meniscii_r.femur_lat_r.force.Z	femur_lat_meniscii_r.femur_lat_r.torque.X	femur_lat_meniscii_r.femur_lat_r.torque.Y	femur_lat_meniscii_r.femur_lat_r.torque.Z	femur_lat_meniscii_r.meniscus_lat_r.force.X	femur_lat_meniscii_r.meniscus_lat_r.force.Y	femur_lat_meniscii_r.meniscus_lat_r.force.Z	femur_lat_meniscii_r.meniscus_lat_r.torque.X	femur_lat_meniscii_r.meniscus_lat_r.torque.Y	femur_lat_meniscii_r.meniscus_lat_r.torque.Z	femur_med_meniscii_r.femur_med_r.force.X	femur_med_meniscii_r.femur_med_r.force.Y	femur_med_meniscii_r.femur_med_r.force.Z	femur_med_meniscii_r.femur_med_r.torque.X	femur_med_meniscii_r.femur_med_r.torque.Y	femur_med_meniscii_r.femur_med_r.torque.Z	femur_med_meniscii_r.meniscus_med_r.force.X	femur_med_meniscii_r.meniscus_med_r.force.Y	femur_med_meniscii_r.meniscus_med_r.force.Z	femur_med_meniscii_r.meniscus_med_r.torque.X	femur_med_meniscii_r.meniscus_med_r.torque.Y	femur_med_meniscii_r.meniscus_med_r.torque.Z	femur_med_tibia_l.tibia_upper_l.force.X	femur_med_tibia_l.tibia_upper_l.force.Y	femur_med_tibia_l.tibia_upper_l.force.Z	femur_med_tibia_l.tibia_upper_l.torque.X	femur_med_tibia_l.tibia_upper_l.torque.Y	femur_med_tibia_l.tibia_upper_l.torque.Z	femur_med_tibia_l.femur_med_l.force.X	femur_med_tibia_l.femur_med_l.force.Y	femur_med_tibia_l.femur_med_l.force.Z	femur_med_tibia_l.femur_med_l.torque.X	femur_med_tibia_l.femur_med_l.torque.Y	femur_med_tibia_l.femur_med_l.torque.Z	femur_lat_tibia_l.tibia_upper_l.force.X	femur_lat_tibia_l.tibia_upper_l.force.Y	femur_lat_tibia_l.tibia_upper_l.force.Z	femur_lat_tibia_l.tibia_upper_l.torque.X	femur_lat_tibia_l.tibia_upper_l.torque.Y	femur_lat_tibia_l.tibia_upper_l.torque.Z	femur_lat_tibia_l.femur_lat_l.force.X	femur_lat_tibia_l.femur_lat_l.force.Y	femur_lat_tibia_l.femur_lat_l.force.Z	femur_lat_tibia_l.femur_lat_l.torque.X	femur_lat_tibia_l.femur_lat_l.torque.Y	femur_lat_tibia_l.femur_lat_l.torque.Z	femur_med_tibia_r.tibia_upper_r.force.X	femur_med_tibia_r.tibia_upper_r.force.Y	femur_med_tibia_r.tibia_upper_r.force.Z	femur_med_tibia_r.tibia_upper_r.torque.X	femur_med_tibia_r.tibia_upper_r.torque.Y	femur_med_tibia_r.tibia_upper_r.torque.Z	femur_med_tibia_r.femur_med_r.force.X	femur_med_tibia_r.femur_med_r.force.Y	femur_med_tibia_r.femur_med_r.force.Z	femur_med_tibia_r.femur_med_r.torque.X	femur_med_tibia_r.femur_med_r.torque.Y	femur_med_tibia_r.femur_med_r.torque.Z	femur_lat_tibia_r.tibia_upper_r.force.X	femur_lat_tibia_r.tibia_upper_r.force.Y	femur_lat_tibia_r.tibia_upper_r.force.Z	femur_lat_tibia_r.tibia_upper_r.torque.X	femur_lat_tibia_r.tibia_upper_r.torque.Y	femur_lat_tibia_r.tibia_upper_r.torque.Z	femur_lat_tibia_r.femur_lat_r.force.X	femur_lat_tibia_r.femur_lat_r.force.Y	femur_lat_tibia_r.femur_lat_r.force.Z	femur_lat_tibia_r.femur_lat_r.torque.X	femur_lat_tibia_r.femur_lat_r.torque.Y	femur_lat_tibia_r.femur_lat_r.torque.Z	aACL_R	pACL_R	aPCL_R	pPCL_R	aMCL_R	aLCL_R	aPCL_L	pPCL_L	aMCL_L	aLCL_L
      0.15405914	     12.01885218	     25.91103278	    141.31180210	      3.90028355	      4.35720364	      9.98993630	    242.07893223	    182.15257016	    385.57835050	    294.21957432	     95.70588426	      7.22005836	      6.45141300	     18.69578731	     15.18244017	     82.59508662	      0.00000000	      2.48761616	    100.30695785	      8.49594764	     12.75924667	     58.16480833	      7.94137065	      7.53957308	    188.13327292	     36.59797840	     73.20061710	     23.48047285	     59.04846496	     34.45771990	     69.54906502	      0.00000000	      0.00000000	      0.00000000	      0.00000000	      0.00000000	      0.00000000	     41.88378350	      0.92422275	      1.26048601	     30.00383410	     46.07000874	     11.21530903	     12.05904591	      8.74356161	      9.40933984	      4.02937282	      4.67173851	      5.09556436	     15.04057757	      6.49814697	     13.01167534	     11.03957326	      2.29858760	      8.70669546	      6.25131246	      4.49338857	      3.81615346	      6.45513633	      5.62659287	      3.40220992	      2.37473024	      5.64671449	      8.59096912	      6.46059351	     28.28130007	     19.36649197	      5.54619178	      3.77720444	      7.28864455	     17.95742541	     10.29397190	     11.90202838	     12.78266945	     25.98065663	     12.07482888	     55.45830087	     52.55941880	      5.89306203	      5.78351440	     14.00261522	      7.51169855	     19.33758458	      2.99386089	      9.17005458	      2.86609784	     37.93102250	     37.93102250	     14.14406355	     14.14406355	     31.44612041	     31.44612041	      2.76307435	     50.99597937	     -9.56042239	      5.21997485	     -0.02578839	      1.48581788	     -2.76307435	    -50.99597937	      9.56042239	     -1.74637766	      0.02558040	     -0.48301696	     -3.31599387	     20.97615968	     -3.40468921	      0.94473225	     -0.02138609	     -1.00501789	      3.31599387	    -20.97615968	      3.40468921	      0.28075727	      0.00368718	     -0.29758878	   -258.86417347	    157.90834862	      0.97418485	     -3.60497846	     -6.42573458	     61.08198312	    258.86417347	   -157.90834862	     -0.97418485	      4.19904956	      6.96795156	      8.88742322	   -237.55893738	    141.73195225	    -48.44044933	      2.64656526	     23.78084161	     54.38772732	    237.55893738	   -141.73195225	     48.44044933	     -3.47420823	     -3.65486799	      8.55775646	      0.00000000	      0.00000000	      0.00000000	      0.00000000	      0.00000000	      0.00000000	      0.00000000	      0.00000000	      0.00000000	      0.00000000	      0.00000000	      0.00000000	      0.00000000	      0.00000000	      0.00000000	      0.00000000	      0.00000000	      0.00000000	      0.00000000	      0.00000000	      0.00000000	      0.00000000	      0.00000000	      0.00000000	    573.72570958	   -570.23621986	     72.57593048	    -11.07380138	     -8.84731199	     18.10339320	   -573.72570958	    570.23621986	    -72.57593048	     11.11927009	     39.78338567	    224.60494045	      1.88464206	     -1.16156043	     -0.32670805	      0.04152819	      0.05010935	      0.06142966	     -1.88464206	      1.16156043	      0.32670805	     -0.02834040	     -0.17332517	      0.45272012	      0.00000000	      0.00000000	    664.26259807	    575.57368897	      6.72106077	      0.00000000	      0.00000000	      0.00000000	    116.99866359	      0.00000000
      0.15472891	     11.97900302	     25.88636753	    141.29139697	      3.88867167	      4.34389122	      9.97463367	    242.91931133	    182.59532241	    387.62085866	    294.74237321	     95.66909197	      7.19755318	      6.43236154	     18.67957027	     15.16738304	     82.57871955	      0.00000000	      2.48019074	    100.39037214	      8.46898536	     12.71867748	     58.14402704	      7.91673341	      7.51553241	    188.12332962	     36.59280829	     73.18633714	     23.51589531	     59.23323568	     45.63090562	     69.78285302	      0.00000000	      0.00000000	      0.00000000	      0.00000000	      0.00000000	      0.00000000	     42.01396308	      0.90173271	      1.23635278	     30.07868322	     39.57658346	     11.04167107	     12.01905465	      8.71641173	      9.37977788	      4.01736709	      4.65858519	      5.07870215	     14.98639712	      6.47674084	     12.96533747	     11.00592934	      2.29177070	      8.67935352	      6.23285910	      4.47949136	      3.80408144	      6.43326657	      5.61301907	      3.39199993	      2.36756445	      5.62910141	      8.56411573	      6.44009717	     28.23116005	     19.30930046	      5.52930975	      3.76892194	      7.26186647	     17.89382418	     10.26104130	     11.86337087	     12.74114910	     25.88434576	     12.02995985	     55.25390455	     52.47041284	      5.87031251	      5.76133264	     13.95382486	      7.48438257	     19.27948768	      2.98505249	      9.13659428	      2.85574988	     37.81775355	     37.81775355	     14.09850750	     14.09850750	     31.40473235	     31.40473235	      2.76307435	     50.99597937	     -9.56042239	      5.21997485	     -0.02578839	      1.48581788	     -2.76307435	    -50.99597937	      9.56042239	     -1.74637766	      0.02558040	     -0.48301696	     -3.31599387	     20.97615968	     -3.40468921	      0.94473225	     -0.02138609	     -1.00501789	      3.31599387	    -20.97615968	      3.40468921	      0.28075727	      0.00368718	     -0.29758878	   -263.71027057	    160.50291973	      1.46063842	     -3.66925847	     -6.75669983	     62.04728504	    263.71027057	   -160.50291973	     -1.46063842	      4.28924057	      7.12757513	      9.13328603	   -250.68204836	    151.75572645	    -50.57389926	      2.80638102	     24.84379487	     58.24366366	    250.68204836	   -151.75572645	     50.57389926	     -3.65720049	     -3.80811558	      9.09482534	      0.00000000	      0.00000000	      0.00000000	      0.00000000	      0.00000000	      0.00000000	      0.00000000	      0.00000000	      0.00000000	      0.00000000	      0.00000000	      0.00000000	      0.00000000	      0.00000000	      0.00000000	      0.00000000	      0.00000000	      0.00000000	      0.00000000	      0.00000000	      0.00000000	      0.00000000	      0.00000000	      0.00000000	    581.67463889	   -588.10400813	     75.75811660	    -11.41012327	     -8.90666320	     18.48892175	   -581.67463889	    588.10400813	    -75.75811660	     11.43840875	     41.16190664	    231.68869420	      3.17445740	     -1.94489312	     -0.54083367	      0.06955601	      0.08442883	      0.10471108	     -3.17445740	      1.94489312	      0.54083367	     -0.04757409	     -0.28823940	      0.75723682	      0.00000000	      0.00000000	    669.33453542	    579.29926557	      6.47299191	      0.00000000	      0.00000000	      0.00000000	    116.99866359	      0.00000000
      0.15539869	     11.93951383	     25.86192466	    141.27117337	      3.87716321	      4.33069817	      9.95947216	    243.82371052	    183.07932898	    389.66359999	    295.11176382	     95.59174527	      7.17525120	      6.41347932	     18.66349960	     15.15246319	     82.56250024	      0.00000000	      2.47283164	    100.47589109	      8.44226653	     12.67847457	     58.12343274	      7.89231942	      7.49171130	    188.11347434	     36.58768449	     73.17218945	     23.47377709	     59.37185376	     31.23811331	     69.94759541	      0.00000000	      0.00000000	      0.00000000	      0.00000000	      0.00000000	      0.00000000	     42.16238884	      0.87927449	      1.21141028	     30.06702191	     43.98071489	     11.44982507	     11.97942463	      8.68950614	      9.35048265	      4.00546830	      4.64555013	      5.06199223	     14.93268565	      6.45552818	     12.91940648	     10.97258718	      2.28501445	      8.65225828	      6.21456966	      4.46571937	      3.79211877	      6.41159391	      5.59956806	      3.38188114	      2.36046273	      5.61164769	      8.53750522	      6.41978645	     28.18147838	     19.25263214	      5.51257900	      3.76071584	      7.23531549	     17.83078392	     10.22841101	     11.82506602	     12.70000912	     25.78882588	     11.98546033	     55.05124460	     52.38220634	      5.84774801	      5.73933563	     13.90546902	      7.45730430	     19.22189796	      2.97632452	      9.10340929	      2.84548694	     37.70549421	     37.70549421	     14.05336321	     14.05336321	     31.36372427	     31.36372427	      2.76307435	     50.99597937	     -9.56042239	      5.21997485	     -0.02578839	      1.48581788	     -2.76307435	    -50.99597937	      9.56042239	     -1.74637766	      0.02558040	     -0.48301696	     -3.31599387	     20.97615968	     -3.40468921	      0.94473225	     -0.02138609	     -1.00501789	      3.31599387	    -20.97615968	      3.40468921	      0.28075727	      0.00368718	     -0.29758878	   -260.11893771	    155.86664171	      2.08414231	     -3.58623250	     -6.98586530	     60.18841501	    260.11893771	   -155.86664171	     -2.08414231	      4.20990646	      7.10032684	      9.09124505	   -227.39768827	    137.17245849	    -49.57437485	      2.61092868	     24.13237619	     52.62937283	    227.39768827	   -137.17245849	     49.57437485	     -3.48716664	     -3.56538603	      8.29886073	      0.00000000	      0.00000000	      0.00000000	      0.00000000	      0.00000000	      0.00000000	      0.00000000	      0.00000000	      0.00000000	      0.00000000	      0.00000000	      0.00000000	      0.00000000	      0.00000000	      0.00000000	      0.00000000	      0.00000000	      0.00000000	      0.00000000	      0.00000000	      0.00000000	      0.00000000	      0.00000000	      0.00000000	    573.69790820	   -583.43495272	     74.36097442	    -11.23372127	     -8.70221092	     18.41242631	   -573.69790820	    583.43495272	    -74.36097442	     11.29059499	     40.39695873	    229.82524807	      4.48231312	     -2.79114987	     -0.79594745	      0.10085152	      0.11963459	      0.14851421	     -4.48231312	      2.79114987	      0.79594745	     -0.06865313	     -0.42032108	      1.08722607	      0.00000000	      0.00000000	    674.98678816	    585.28022936	      6.11781341	      0.00000000	      0.00000000	      0.00000000	    116.99866359	      0.00000000
      0.15606846	     11.90038128	     25.83770208	    141.25112964	      3.86575723	      4.31762340	      9.94445042	    244.71490954	    183.55410840	    391.68904807	    295.54214312	     95.49261279	      7.15315054	      6.39476478	     18.64757390	     15.13767929	     82.54642731	      0.00000000	      2.46553822	    100.54069544	      8.41578887	     12.63863454	     58.10302369	      7.86812657	      7.46810765	    188.10370629	     36.58260659	     73.15817273	     23.50934217	     59.53381656	     44.11847671	     70.18530810	      0.00000000	      0.00000000	      0.00000000	      0.00000000	      0.00000000	      0.00000000	     42.29869479	      0.85569248	      1.18437671	     30.06019405	     47.01581865	     11.34179159	     11.94015251	      8.66284258	      9.32145166	      3.99367548	      4.63263221	      5.04543317	     14.87943906	      6.43450720	     12.87387875	     10.93954396	      2.27831827	      8.62540744	      6.19644262	      4.45207146	      3.78026443	      6.39011654	      5.58623871	      3.37185272	      2.35342448	      5.59435181	      8.51113533	      6.39965959	     28.13225069	     19.19648208	      5.49599814	      3.75258542	      7.20898965	     17.76829962	     10.19607819	     11.78711051	     12.65924588	     25.69409021	     11.94132714	     54.85030586	     52.29479178	      5.82536748	      5.71752227	     13.85754375	      7.43046162	     19.16481071	      2.96767623	      9.07049661	      2.83530806	     37.59423520	     37.59423520	     14.00862683	     14.00862683	     31.32309252	     31.32309252	      2.76307435	     50.99597937	     -9.56042239	      5.21997485	     -0.02578839	      1.48581788	     -2.76307435	    -50.99597937	      9.56042239	     -1.74637766	      0.02558040	     -0.48301696	     -3.31599387	     20.97615968	     -3.40468921	      0.94473225	     -0.02138609	     -1.00501789	      3.31599387	    -20.97615968	      3.40468921	      0.28075727	      0.00368718	     -0.29758878	   -270.44938496	    164.09255969	      2.28280321	     -3.77886267	     -7.39455891	     63.36628600	    270.44938496	   -164.09255969	     -2.28280321	      4.44120360	      7.47221297	      9.52096276	   -221.18824593	    136.42568183	    -48.54155686	      2.53588684	     23.51809195	     52.40789348	    221.18824593	   -136.42568183	     48.54155686	     -3.38654411	     -3.37209876	      8.08844073	      0.00000000	      0.00000000	      0.00000000	      0.00000000	      0.00000000	      0.00000000	      0.00000000	      0.00000000	      0.00000000	      0.00000000	      0.00000000	      0.00000000	      0.00000000	      0.00000000	      0.00000000	      0.00000000	      0.00000000	      0.00000000	      0.00000000	      0.00000000	      0.00000000	      0.00000000	      0.00000000	      0.00000000	    576.63213209	   -591.41706979	     76.51406763	    -11.40062691	     -8.70028456	     18.65176947	   -576.63213209	    591.41706979	    -76.51406763	     11.43349669	     41.28769767	    232.98559866	      5.75929900	     -3.70699818	     -1.03123257	      0.13298746	      0.15355063	      0.19089159	     -5.75929900	      3.70699818	      1.03123257	     -0.09080733	     -0.54336705	      1.44596198	      0.00000000	      0.00000000	    680.01324360	    589.68143337	      4.72529420	      0.00000000	      0.00000000	      0.00000000	    116.99866359	      0.00000000
